<svg width="17" height="17" viewBox="0 0 17 17" fill="none" xmlns="http://www.w3.org/2000/svg">
<g id="Group 1000005570">
<circle id="Ellipse 189" cx="4.52517" cy="8.04006" r="3.08571" fill="white"/>
<rect id="Rectangle 4414" x="11.9316" y="5.7771" width="4.52571" height="0.617143" rx="0.308571" fill="white"/>
<rect id="Rectangle 4415" x="11.9316" y="7.11426" width="4.52571" height="0.617143" rx="0.308571" fill="white"/>
<rect id="Rectangle 4416" x="8.74219" y="8.65723" width="7.71429" height="0.617143" rx="0.308571" fill="white"/>
<rect id="Rectangle 4417" x="8.74219" y="10.0972" width="7.71429" height="0.617143" rx="0.308571" fill="white"/>
<g id="Group 1000005731">
<path id="Vector" d="M8.18896 15.1965C7.47398 15.1965 6.78561 15.1965 6.09877 15.1965C5.99234 14.7426 5.80495 14.5959 5.33818 14.5959C3.93179 14.5959 2.52541 14.5963 1.11903 14.5959C0.414693 14.5955 0 14.1801 0 13.4746C0 9.35692 0 5.23926 0 1.12159C0 0.415739 0.414313 0.000285078 1.11865 0.000285078C4.15948 -9.5026e-05 7.20031 -9.5026e-05 10.2408 0.000285078C10.9318 0.000285078 11.3541 0.418779 11.3548 1.11095C11.3567 2.5428 11.3552 3.97427 11.3556 5.40612C11.3556 5.8421 11.4655 5.98844 11.8763 6.12604C11.914 6.13858 11.9588 6.20206 11.9596 6.24273C11.9653 6.72394 11.9679 7.20553 11.9565 7.68674C11.9554 7.73654 11.868 7.8137 11.8083 7.82814C10.7851 8.07369 9.88498 8.5511 9.17723 9.32841C7.65871 10.9967 7.32004 12.9029 8.11256 15.0125C8.13422 15.0695 8.15931 15.125 8.18896 15.1965ZM5.68369 5.31224C5.68369 5.30045 5.68369 5.28905 5.68369 5.27727C5.31005 5.27727 4.93603 5.26662 4.56277 5.27955C3.86832 5.30349 3.31451 5.6129 2.88841 6.15303C2.48474 6.66465 2.40112 7.26255 2.43076 7.89162C2.44749 8.2436 2.70102 8.51309 3.03893 8.51385C3.39129 8.51461 3.65394 8.24778 3.6566 7.88554C3.65774 7.75897 3.65394 7.63201 3.65774 7.50544C3.6756 6.92692 4.10284 6.5069 4.68022 6.50462C5.35794 6.50196 6.03529 6.50082 6.71301 6.50538C7.22653 6.5088 7.64313 6.90449 7.67772 7.41535C7.69026 7.59818 7.68 7.78329 7.69976 7.96498C7.73397 8.27971 7.99168 8.50777 8.29919 8.51309C8.60441 8.51841 8.85832 8.3143 8.90697 7.99843C8.93282 7.83118 8.92788 7.65786 8.9237 7.48719C8.89709 6.39819 8.17489 5.50305 7.103 5.32402C6.64231 5.248 6.15768 5.31224 5.68369 5.31224ZM5.68483 4.4551C6.58986 4.45092 7.30408 3.72492 7.29799 2.81533C7.29191 1.93197 6.55451 1.21244 5.65861 1.21624C4.76916 1.22004 4.05305 1.95174 4.05951 2.8503C4.06597 3.75039 4.78399 4.45928 5.68483 4.4551ZM4.45064 10.9469C5.0455 10.9469 5.64036 10.9477 6.23484 10.9465C6.62103 10.9458 6.88786 10.6953 6.8871 10.3372C6.88672 9.98105 6.61837 9.73094 6.23218 9.73056C5.04892 9.7298 3.86566 9.7298 2.68239 9.73056C2.29849 9.73094 2.02215 9.98751 2.02253 10.3391C2.02291 10.6877 2.30267 10.9458 2.68467 10.9465C3.27345 10.9477 3.86224 10.9469 4.45064 10.9469ZM4.04773 13.3796C4.50309 13.3796 4.95845 13.3803 5.41382 13.3792C5.80951 13.3784 6.08546 13.123 6.08166 12.763C6.07786 12.4126 5.80343 12.1636 5.41686 12.1632C4.50613 12.1625 3.59578 12.1625 2.68505 12.1632C2.30039 12.1636 2.02519 12.4171 2.02329 12.7687C2.02139 13.1165 2.30191 13.3777 2.68201 13.3788C3.137 13.3807 3.59236 13.3796 4.04773 13.3796Z" fill="#808080"/>
<path id="Vector_2" d="M8.94727 12.959C8.94804 10.7457 10.7638 8.94093 12.9942 8.94777C15.1091 8.95462 17.0028 10.6202 17.0009 12.9784C16.999 15.2252 15.2505 16.9946 12.9832 16.9999C10.6254 17.006 8.94271 15.1032 8.94727 12.959ZM12.1048 13.4927C12.0447 13.4075 12.0117 13.3433 11.9634 13.2943C11.6388 12.9655 11.3161 12.6348 10.982 12.3155C10.7231 12.068 10.3381 12.081 10.0937 12.3273C9.85078 12.5717 9.83406 12.9472 10.0792 13.1981C10.6277 13.7591 11.1827 14.3145 11.7448 14.8618C11.99 15.1005 12.3515 15.0842 12.6005 14.847C12.678 14.7729 12.7483 14.6908 12.819 14.6098C13.136 14.2483 13.4523 13.8861 13.7689 13.5242C14.3314 12.8815 14.8978 12.2421 15.455 11.5948C15.7192 11.2877 15.6934 10.9004 15.4132 10.6655C15.1289 10.4271 14.7556 10.4697 14.4888 10.7738C14.038 11.2873 13.5891 11.8027 13.1387 12.3166C12.8095 12.6918 12.4796 13.0662 12.1048 13.4927Z" fill="#808080"/>
<path id="Vector_3" d="M5.67377 3.22465C5.45977 3.22427 5.29214 3.05893 5.2891 2.84493C5.28606 2.62789 5.46737 2.4405 5.67833 2.4424C5.87674 2.44392 6.06565 2.63093 6.07097 2.8301C6.07629 3.04068 5.89042 3.22503 5.67377 3.22465Z" fill="#808080"/>
</g>
</g>
</svg>
