<svg width="17" height="17" viewBox="0 0 17 17" fill="none" xmlns="http://www.w3.org/2000/svg">
<path id="Vector" d="M0 13.821C0 14.705 0.311667 15.453 0.935 16.065C1.55833 16.677 2.312 16.9887 3.196 17H13.821C14.6937 17 15.4417 16.6883 16.065 16.065C16.6883 15.4417 17 14.6937 17 13.821V3.196C17 2.312 16.6883 1.55833 16.065 0.935C15.4417 0.311667 14.6937 0 13.821 0H3.196C2.312 0 1.55833 0.311667 0.935 0.935C0.311667 1.55833 0 2.312 0 3.196L0 13.821ZM2.125 12.75V3.196C2.125 2.90133 2.227 2.652 2.431 2.448C2.635 2.244 2.89 2.13633 3.196 2.125H13.821C14.1043 2.125 14.3537 2.23267 14.569 2.448C14.7843 2.66333 14.8863 2.91267 14.875 3.196V12.75H2.125ZM5.321 10.098C5.321 10.54 5.474 10.9197 5.78 11.237C6.086 11.5543 6.46 11.7073 6.902 11.696H10.098C10.54 11.696 10.914 11.543 11.22 11.237C11.526 10.931 11.6847 10.5513 11.696 10.098C11.6053 9.622 11.4127 9.18567 11.118 8.789C10.8233 8.39233 10.4607 8.075 10.03 7.837C10.4267 7.429 10.625 6.94167 10.625 6.375V5.321C10.625 4.73167 10.4153 4.22733 9.996 3.808C9.57667 3.38867 9.078 3.18467 8.5 3.196C7.922 3.20733 7.42333 3.41133 7.004 3.808C6.58467 4.20467 6.375 4.709 6.375 5.321V6.375C6.375 6.94167 6.57333 7.429 6.97 7.837C6.53933 8.075 6.17667 8.39233 5.882 8.789C5.58733 9.18567 5.40033 9.622 5.321 10.098Z" fill="#808080"/>
</svg>
